# xmcd CD database file
#
# Track frame offsets:
#	150
#	17744
#	33955
#	53765
#	70318
#	88593
#	108657
#	129341
#	141859
#	161069
#	176733
#	187476
#	207391
#	226325
#
# Disc length: 3194 seconds
#
# Revision: 0
# Processed by: cddbd v1.5.2PL0 Copyright (c) Steve Scherf et al.
# Submitted via: CDex 1.51
#
DISCID=cb0c780e
DTITLE=Otis Taylor - Recapturing The Banjo
DYEAR=2008
DGENRE=Blues
TTITLE0=Ran So Hard the Sun Went Down
TTITLE1=Prophets' Mission
TTITLE2=Absinthe
TTITLE3=Live Your Life
TTITLE4=Walk Right In
TTITLE5=Bow-Legged Charlie
TTITLE6=Hey Joe
TTITLE7=Hey Liza Jane
TTITLE8=Five Hundred Roses
TTITLE9=Les Oignons
TTITLE10=Deep Blue Sea
TTITLE11=Simple Mind
TTITLE12=Ten Million Slaves
TTITLE13=The Way It Goes
EXTD=YEAR: 2008
EXTT0=
EXTT1=
EXTT2=
EXTT3=
EXTT4=
EXTT5=
EXTT6=
EXTT7=
EXTT8=
EXTT9=
EXTT10=
EXTT11=
EXTT12=
EXTT13=
PLAYORDER=
